<svg version="1.1" x="0px" y="0px" viewBox="0 0 469 469" xml:space="preserve">
<g>
	<path d="M303,33.5H15c-8.284,0-15,6.716-15,15v372c0,8.284,6.716,15,15,15h288c8.284,0,15-6.716,15-15v-372
		C318,40.216,311.284,33.5,303,33.5z M288,405.5H30v-342h258V405.5z"/>
	<path d="M67,146.5h184c5.523,0,10-4.478,10-10s-4.477-10-10-10H67c-5.523,0-10,4.478-10,10S61.477,146.5,67,146.5z"/>
	<path d="M67,194.5h184c5.523,0,10-4.478,10-10s-4.477-10-10-10H67c-5.523,0-10,4.478-10,10S61.477,194.5,67,194.5z"/>
	<path d="M67,242.5h184c5.523,0,10-4.478,10-10s-4.477-10-10-10H67c-5.523,0-10,4.478-10,10S61.477,242.5,67,242.5z"/>
	<path d="M251,346.5H151c-5.523,0-10,4.478-10,10s4.477,10,10,10h100c5.523,0,10-4.478,10-10S256.523,346.5,251,346.5z"/>
	<path d="M438,98.782V48.5c0-8.284-6.716-15-15-15h-56c-8.284,0-15,6.716-15,15v324c0,20.267,14.099,37.293,33,41.813v6.187
		c0,5.522,4.477,10,10,10s10-4.478,10-10v-6.187c18.901-4.521,33-21.547,33-41.813V120.868c6.635,4.532,11,12.153,11,20.776V232.5
		c0,5.522,4.477,10,10,10s10-4.478,10-10v-90.855C469,121.692,455.983,104.732,438,98.782z M408,63.5v33h-26v-33H408z M408,298.5
		h-26v-182h26V298.5z M395,385.5L395,385.5c-7.169,0-13-5.832-13-13v-54h26v54C408,379.668,402.168,385.5,395,385.5z"/>
</g>
</svg>
